<?xml version="1.0" encoding="utf-8"?>
<!-- Generator: Adobe Illustrator 27.5.0, SVG Export Plug-In . SVG Version: 6.00 Build 0)  -->
<svg version="1.1" xmlns="http://www.w3.org/2000/svg" xmlns:xlink="http://www.w3.org/1999/xlink" x="0px" y="0px"
	 viewBox="0 0 500 500" style="enable-background:new 0 0 500 500;" xml:space="preserve">
<g id="BACKGROUND">
	<rect style="fill:#FFFFFF;" width="500" height="500"/>
</g>
<g id="OBJECTS">
	<g>
		<path style="fill:#050505;" d="M214.588,193.48c-0.584,0.637-3.312-2.809-8.336-3.158c-6.024-0.418-9.873,3.998-10.609,3.158
			c-0.893-1.019,3.027-9.49,9.473-9.473C211.587,184.024,215.411,192.583,214.588,193.48z"/>
		<path style="fill:#050505;" d="M290.65,193.48c-0.584,0.637-3.312-2.809-8.336-3.158c-6.024-0.418-9.873,3.998-10.609,3.158
			c-0.893-1.019,3.027-9.49,9.473-9.473C287.648,184.024,291.473,192.583,290.65,193.48z"/>
		<g>
			<path style="fill:none;" d="M346.83,353.379c5.251-14.341,6.801-33.908-2.028-44.387c-1.877-2.228-6.274-7.445-13.73-8.799
				c-2.847-0.518-5.788-0.403-8.741,0.342c-0.569,0.144-1.148-0.202-1.293-0.773c-0.013-0.049-0.002-0.097-0.007-0.147
				c-0.986,4.136-2.226,8.426-3.778,12.875c-10.784,30.912-18.984,52.22-24.373,65.558
				C306.069,362.809,325.832,353.707,346.83,353.379z"/>
		</g>
		<g>
			<path style="fill:#050505;" d="M305.015,108.181l-3.409,7.646l2-0.377c0.035-0.005,3.318-0.578,9.451,2.488
				c0.153,0.076,0.315,0.112,0.475,0.112c0.391,0,0.766-0.215,0.954-0.589c0.263-0.526,0.05-1.166-0.476-1.429
				c-4.144-2.072-7.164-2.629-8.948-2.737l2.974-6.65l-1.274-0.283c-7.356-1.634-14.045-0.93-17.269-0.394
				c2.645-5.961,12.258-25.123,30.064-34.479c0.521-0.274,0.722-0.917,0.447-1.438c-0.272-0.52-0.916-0.721-1.437-0.447
				c-21.851,11.481-31.732,37.165-31.828,37.423l-0.717,1.902l1.971-0.493C288.074,108.415,295.949,106.495,305.015,108.181z"/>
			<path style="fill:#050505;" d="M168.194,71.49c17.79,9.347,27.415,28.516,30.064,34.479c-3.228-0.537-9.916-1.24-17.269,0.394
				l-1.274,0.283l2.975,6.65c-1.784,0.108-4.805,0.665-8.948,2.737c-0.526,0.263-0.74,0.903-0.476,1.429
				c0.187,0.373,0.563,0.589,0.954,0.589c0.16,0,0.322-0.036,0.475-0.112c6.13-3.065,9.419-2.494,9.439-2.49l2.045,0.431
				l-3.443-7.697c9.048-1.682,16.941,0.235,17.024,0.255l1.969,0.49l-0.716-1.899c-0.097-0.258-9.978-25.942-31.828-37.423
				c-0.52-0.274-1.165-0.073-1.438,0.447C167.474,70.572,167.674,71.216,168.194,71.49z"/>
			<path style="fill:#050505;" d="M273.27,324.095c3.195-5.555,4.649-10.644,4.773-11.092c0.157-0.567-0.176-1.152-0.742-1.311
				c-0.566-0.155-1.155,0.175-1.311,0.742c-0.062,0.225-6.415,22.466-22.081,24.288c-0.585,0.068-1.003,0.596-0.935,1.181
				c0.062,0.543,0.523,0.942,1.057,0.942c0.041,0,0.082-0.002,0.124-0.007c8.214-0.954,13.981-6.732,17.793-12.584
				c0.102,0.032,0.206,0.061,0.317,0.061c0.022,0,0.045-0.001,0.068-0.002c31.284-1.955,41.357-46.651,41.456-47.101
				c0.125-0.575-0.24-1.142-0.814-1.267c-0.581-0.125-1.142,0.239-1.268,0.813C311.613,279.188,302.11,321.284,273.27,324.095z"/>
			<path style="fill:#050505;" d="M324.043,146.081c29.581-44.438,5.062-93.223,4.81-93.713l-0.246-0.477l-0.529-0.086
				c-19.629-3.212-58.37,41.613-63.504,47.676c-7.643-3.058-20.858-3.095-21.436-3.095c-0.577,0-13.793,0.036-21.436,3.095
				c-5.133-6.063-43.827-50.899-63.504-47.676l-0.529,0.086l-0.246,0.477c-0.252,0.49-24.77,49.276,4.811,93.713
				c-3.292,4.631-22.893,32.875-21.136,46.228l0.142,1.081l16.118-2.507c-1.083,4.959-4.211,20.313-2.578,25.212l0.186,0.557
				l0.57,0.14c0.166,0.041,11.482,2.785,24.741,3.581c-2.634,2.993-8.482,10.498-12.877,22.456
				c-4.409,11.997-7.919,30.525-2.538,54.56c-2.932-0.618-5.854-0.675-8.697-0.16c-8.214,1.493-13.128,7.328-14.978,9.524
				c-11.1,13.173-6.41,36.272-1.889,47.844c7.684,19.665,23.327,30.445,32.799,35.409c-4.744,5.026-4.847,6.763-4.21,7.871
				c0.26,0.452,0.675,0.714,1.009,0.922c0.031,0.02,0.066,0.042,0.101,0.065c-0.165,0.2-0.371,0.475-0.554,0.866
				c-0.188,0.401-0.757,1.812-0.174,3.116c0.543,1.214,1.93,1.973,3.574,1.973c0.076,0,0.153-0.002,0.23-0.005
				c3.203-0.136,15.046-0.103,22.122-0.082c2.086,0.006,3.685,0.01,4.643,0.009c0.128,0.612,0.318,1.212,0.595,1.784
				c1.097,2.263,3.251,3.716,6.408,4.324c0.511,0.562,1.626,1.289,3.969,1.289c1.475,0,3.439-0.288,6.044-1.087
				c1.808,1.141,5.358,1.873,8.615-2.035l0.234-0.281l0.234-6.589c3.005,0.692,10.818,2.264,19.839,2.264
				c5.348,0,11.115-0.567,16.551-2.186l0.239,6.725l0.012,0.364l0.233,0.28c3.259,3.912,6.809,3.175,8.615,2.035
				c2.607,0.799,4.569,1.088,6.044,1.087c0.323,0,0.617-0.016,0.895-0.042c0.092-0.726,0.193-1.453,0.311-2.186
				c-1.224,0.22-3.44,0.133-7.11-1.049l-0.55-0.17l-0.446,0.356c-0.298,0.236-2.933,2.164-5.889-1.126l-2.066-58.169
				c2.3-2.426,19.009-18.884,45.779-16.446c-8.946,24.711-15.505,41.131-19.481,50.663c1.527-2.274,3.188-4.442,4.968-6.499
				c5.389-13.338,13.589-34.645,24.373-65.558c1.552-4.449,2.792-8.739,3.778-12.875c-0.027-0.258,0.03-0.505,0.17-0.71
				c0.375-1.613,0.706-3.2,1.003-4.763c-0.613-0.117-0.963-0.176-1.004-0.183c-0.58-0.095-0.975-0.643-0.88-1.223
				c0.095-0.579,0.632-0.973,1.223-0.88c0.042,0.007,0.404,0.068,1.039,0.189c3.617-21.169,0.336-37.646-3.704-48.638
				c-4.693-12.767-11.048-20.468-13.372-23.01c13.471-0.757,25.068-3.565,25.235-3.606l0.57-0.14l0.185-0.557
				c1.633-4.898-1.495-20.252-2.577-25.212l16.119,2.507l0.141-1.081C346.936,178.957,327.335,150.713,324.043,146.081z
				 M159.079,53.833c19.644-2.191,61.078,47.115,61.497,47.618l0.517,0.62l0.737-0.331c7.075-3.185,21.166-3.224,21.307-3.224
				c0.141,0,14.233,0.039,21.308,3.224l0.736,0.331l0.518-0.62c0.42-0.503,41.871-49.808,61.497-47.617
				c2.458,5.161,22.342,49.918-4.841,90.924c-3.696-2.298-20.671-11.783-38.349-4.301c-17.807,7.535-30.073,29.614-36.475,65.613
				c-1.193-0.366-2.52-0.568-3.94-0.54c-1.874-0.112-3.602,0.145-5.098,0.652c-6.397-36.066-18.671-58.182-36.496-65.725
				c-17.399-7.362-34.107,1.702-38.156,4.183C136.795,103.694,156.626,58.993,159.079,53.833z M198.643,402.613
				c-1.003,0-2.595-0.005-4.442-0.011c-7.092-0.021-18.966-0.053-22.219,0.084c-0.92,0.045-1.598-0.327-1.769-0.709
				c-0.169-0.379,0.002-1.01,0.158-1.342c0.106-0.227,0.223-0.363,0.358-0.521c0.237-0.277,0.595-0.696,0.565-1.376
				c-0.042-0.971-0.808-1.454-1.265-1.741c-0.086-0.054-0.205-0.129-0.277-0.183c0.01-0.294,0.336-1.654,4.37-5.842
				c2.977,1.253,6.071,2.234,9.231,2.89c3.338,0.692,6.75,1.042,10.161,1.042c0.385,0,0.771-0.005,1.156-0.013
				c0.588-0.014,1.054-0.501,1.04-1.09c-0.013-0.588-0.493-1.079-1.09-1.04c-3.63,0.089-7.279-0.247-10.835-0.985
				c-3.275-0.678-6.477-1.715-9.54-3.062c-9.02-4.521-25.206-15.034-32.964-34.893c-5.641-14.437-7.567-34.895,1.533-45.695
				c1.715-2.036,6.271-7.446,13.73-8.8c2.846-0.519,5.788-0.402,8.742,0.342c0.038,0.009,0.074,0,0.112,0.005
				c0.961,3.94,2.153,8.018,3.626,12.24c19.042,54.583,30.036,79.245,31.7,82.897C200.122,396.027,198.678,399.292,198.643,402.613z
				 M222.598,407.921c-2.958,3.291-5.591,1.366-5.883,1.133l-0.449-0.369l-0.553,0.178c-5.822,1.874-7.988,0.997-8.292,0.578
				l-0.114-0.503l-0.686-0.112c-2.668-0.436-4.441-1.521-5.269-3.224c-1.927-3.967,1.457-10.183,1.491-10.245l0.263-0.476
				l-0.231-0.492c-0.095-0.203-8.439-18.136-23.989-61.081c26.761-2.436,43.477,14.02,45.778,16.446L222.598,407.921z
				 M303.132,220.995c0.328,0.317,32.498,32.355,12.109,90.795c-2.509,7.191-4.876,13.856-7.101,20.025
				c-24.785-2.492-41.392,10.717-46.629,15.629l-0.132-3.726c-0.02-0.589-0.566-1.07-1.101-1.027
				c-0.589,0.021-1.047,0.514-1.027,1.101l0.22,6.207c0,0.001,0,0.002,0,0.003l1.776,50.026
				c-14.499,4.526-32.264,0.866-36.235-0.058l2.015-56.757c0.021-0.588-0.439-1.081-1.027-1.101c-0.59-0.04-1.081,0.439-1.103,1.027
				l-0.132,3.725c-5.235-4.914-21.837-18.123-46.629-15.628c-2.226-6.17-4.592-12.832-7.101-20.024
				c-19.85-56.898,10.188-88.836,12.02-90.706c5.227,0.195,10.647,0.054,15.73-0.704c3.471,1.372,34.669,13.606,44.352,13.606
				c9.682,0,40.882-12.233,44.352-13.606c4.967,0.739,10.258,0.891,15.374,0.715C302.914,220.693,302.992,220.86,303.132,220.995z
				 M326.144,188.296l0.357,1.536c1.262,5.438,4.169,20.082,3.123,25.035c-3.839,0.876-25.039,5.412-42.096,2.788l-0.287-0.044
				l-0.269,0.107c-0.34,0.136-34.199,13.562-43.833,13.562c-9.634,0-43.492-13.426-43.833-13.562l-0.269-0.107l-0.286,0.044
				c-17.055,2.625-38.258-1.911-42.097-2.788c-1.046-4.952,1.861-19.597,3.123-25.035l0.356-1.536l-17.012,2.647
				c-0.487-13.461,19.512-41.755,21.159-44.059c1.726-1.113,19.26-11.937,36.906-4.458c17.195,7.288,29.072,29.044,35.306,64.657
				c-1.811,1.063-3.017,2.557-3.31,4.151c-0.666,3.625,3.513,7.08,4.36,7.795c0.949,0.801,2.794,2.332,5.277,2.69
				c0.211,0,0.423,0,0.634,0c2.483-0.358,4.329-1.89,5.277-2.69c1.026-0.866,5.033-4.17,4.36-7.795
				c-0.315-1.696-1.621-3.259-3.547-4.32c6.242-35.512,18.108-57.211,35.276-64.488c18.488-7.838,36.873,4.431,37.056,4.556
				c0.086,0.058,0.181,0.085,0.275,0.116c2.469,3.479,21.481,30.718,21.006,43.845L326.144,188.296z"/>
			<path style="fill:#050505;" d="M232.368,336.143c-15.666-1.821-22.019-24.062-22.081-24.286
				c-0.157-0.566-0.744-0.896-1.311-0.742c-0.567,0.158-0.899,0.744-0.742,1.31c0.124,0.448,1.578,5.537,4.773,11.092
				c-28.839-2.812-38.343-44.907-38.437-45.338c-0.125-0.574-0.694-0.938-1.267-0.813c-0.575,0.125-0.94,0.692-0.814,1.267
				c0.098,0.45,10.171,45.145,41.456,47.101c0.023,0.001,0.045,0.002,0.068,0.002c0.112,0,0.215-0.029,0.317-0.061
				c3.812,5.852,9.579,11.629,17.792,12.583c0.042,0.005,0.084,0.007,0.125,0.007c0.533,0,0.993-0.399,1.056-0.942
				C233.37,336.739,232.952,336.211,232.368,336.143z"/>
		</g>
		<g>
			<path style="fill:#050505;" d="M321.031,299.616c0.056-0.236,0.116-0.474,0.17-0.71
				C321.061,299.111,321.003,299.358,321.031,299.616z"/>
		</g>
		<g>
			<path style="fill:#050505;" d="M283.173,395.458l0.262,0.475c0.007,0.012,0.151,0.28,0.357,0.719
				c0.798-1.912,1.704-3.828,2.741-5.742c1.001-1.846,2.096-3.623,3.261-5.346c0.896-2.145,1.926-4.65,3.084-7.516
				c-1.78,2.057-3.441,4.225-4.968,6.499c-2.935,7.035-4.468,10.331-4.508,10.417L283.173,395.458z"/>
		</g>
		<g>
			<path style="fill:#050505;" d="M320.319,292.737c-0.095,0.58,0.3,1.129,0.88,1.223c0.041,0.007,0.391,0.066,1.004,0.183
				c0.134-0.704,0.26-1.403,0.378-2.096c-0.635-0.121-0.997-0.182-1.039-0.189C320.952,291.765,320.414,292.158,320.319,292.737z"/>
		</g>
		<g>
			<path style="fill:#050505;" d="M280.028,409.327c-0.125,0.024-0.242,0.054-0.371,0.075l-0.587-0.134l-0.174,0.673
				c-0.126,0.183-0.505,0.418-1.223,0.547c-0.118,0.733-0.219,1.46-0.311,2.186c0.985-0.09,1.701-0.321,2.214-0.595
				C279.706,411.167,279.857,410.25,280.028,409.327z"/>
		</g>
		<g>
			<path style="fill:#050505;" d="M346.335,354.689c-0.113,0.291-0.246,0.56-0.363,0.846c0.774-0.022,1.551-0.029,2.328-0.025
				c0.006-0.015,0.013-0.03,0.019-0.045c0.257-0.657,0.514-1.356,0.769-2.083c-0.754-0.011-1.507-0.014-2.259-0.002
				C346.668,353.821,346.503,354.258,346.335,354.689z"/>
		</g>
		<g>
			<path style="fill:#050505;" d="M278.897,409.94l0.174-0.673l0.587,0.134c0.129-0.021,0.246-0.051,0.371-0.075
				c0.77-4.154,1.981-8.403,3.764-12.674c-0.206-0.439-0.35-0.707-0.357-0.719l-0.262-0.475l0.23-0.493
				c0.04-0.086,1.573-3.382,4.508-10.417c-1.159,1.725-2.25,3.504-3.25,5.348c-3.759,6.933-5.913,13.898-6.987,20.592
				C278.392,410.359,278.771,410.124,278.897,409.94z"/>
			<path style="fill:#050505;" d="M346.431,307.62c-1.85-2.197-6.767-8.032-14.979-9.523c-3.148-0.57-6.39-0.445-9.642,0.373
				c-0.262,0.066-0.468,0.23-0.609,0.436c-0.055,0.235-0.114,0.473-0.17,0.71c0.005,0.049-0.005,0.097,0.007,0.147
				c0.145,0.571,0.724,0.916,1.293,0.773c2.953-0.745,5.894-0.86,8.741-0.342c7.457,1.354,11.853,6.571,13.73,8.799
				c8.828,10.479,7.278,30.046,2.028,44.387c0.751-0.012,1.504-0.009,2.259,0.002C353.321,341.298,356.9,320.047,346.431,307.62z"/>
			<path style="fill:#050505;" d="M348.3,355.51c3.08,0.013,6.183,0.208,9.293,0.618c0.6,0.077,1.118-0.334,1.195-0.916
				c0.077-0.583-0.334-1.118-0.916-1.195c-2.939-0.388-5.871-0.593-8.784-0.635c-0.255,0.727-0.512,1.426-0.769,2.083
				C348.313,355.48,348.306,355.494,348.3,355.51z"/>
			<path style="fill:#050505;" d="M402.684,336.857c-23.461-32.855-72.371-43.337-80.103-44.811
				c-0.118,0.694-0.245,1.393-0.378,2.096c7.547,1.437,55.755,11.745,78.753,43.959c10.853,15.202,14.606,33.157,11.157,53.365
				c-4.054,23.751-14.122,39.251-30.78,47.387c-3.308,1.616-6.776,2.891-10.349,3.926c-1.021-12.133-5.301-34.218-22.035-54.172
				c-9.004-10.736-20.548-19.484-33.492-25.414c9.297-4.679,19.724-7.361,30.513-7.66c0.117-0.287,0.249-0.556,0.363-0.846
				c0.168-0.431,0.333-0.868,0.495-1.309c-20.997,0.328-40.76,9.43-53.95,24.669c-1.158,2.866-2.188,5.371-3.084,7.516
				c5.961-8.816,13.995-15.981,23.272-21.105c13.268,5.799,25.102,14.608,34.25,25.518c16.548,19.734,20.64,41.604,21.577,53.38
				c-11.792,3.065-24.688,3.592-37.275,4.095c-17.109,0.683-33.297,1.329-44.682,8.447c-2.238-4.497-10.344-22.64-7.361-43.82
				c-0.513,0.274-1.229,0.505-2.214,0.595c-3.056,24.124,7.64,44.183,8.234,45.271l0.562,1.028l0.97-0.656
				c10.923-7.391,27.27-8.043,44.576-8.735c34.287-1.37,73.149-2.922,82.508-57.756C417.763,371.033,413.883,352.54,402.684,336.857
				z"/>
		</g>
	</g>
</g>
</svg>
